<svg xmlns="http://www.w3.org/2000/svg" viewBox="0 0 500 500"><g id="freepik--Books--inject-17"><path d="M199.18,325.79h85.26a0,0,0,0,1,0,0v44.74a0,0,0,0,1,0,0H199.18a17.65,17.65,0,0,1-17.65-17.65v-9.45a17.65,17.65,0,0,1,17.65-17.65Z" style="fill:#261C1A"></path><path d="M262.15,325.79H442a2.93,2.93,0,0,1,2.93,2.93v1.57a2.93,2.93,0,0,1-2.93,2.93H262.15a0,0,0,0,1,0,0v-7.43A0,0,0,0,1,262.15,325.79Z" style="fill:#261C1A"></path><path d="M262.15,363.11H442a2.93,2.93,0,0,1,2.93,2.93v1.57a2.93,2.93,0,0,1-2.93,2.93H262.15a0,0,0,0,1,0,0v-7.43a0,0,0,0,1,0,0Z" style="fill:#261C1A"></path><path d="M439.46,363.11H282.55a14.94,14.94,0,0,1-14.94-14.95h0a14.94,14.94,0,0,1,14.94-14.94H439.46A37,37,0,0,0,439.46,363.11Z" style="fill:#f5f5f5"></path><path d="M267.61,370.54H199.53a18,18,0,0,1-18-18v-8.89a17.86,17.86,0,0,1,17.86-17.86h69.91C253.11,335.61,254.32,359.11,267.61,370.54Z" style="opacity:0.30000000000000004"></path><path d="M420.4,349.55c0,.15-32.21.27-71.93.27s-71.93-.12-71.93-.27,32.2-.27,71.93-.27S420.4,349.4,420.4,349.55Z" style="fill:#263238"></path><path d="M435.2,356.19c0,.15-32.21.27-71.93.27s-71.93-.12-71.93-.27,32.2-.26,71.93-.26S435.2,356.05,435.2,356.19Z" style="fill:#263238"></path><path d="M430.84,340.13c0,.15-32.21.27-71.93.27s-71.94-.12-71.94-.27,32.2-.27,71.94-.27S430.84,340,430.84,340.13Z" style="fill:#263238"></path><path d="M259.73,367.4c0,.15-15.08.27-33.67.27s-33.67-.12-33.67-.27,15.07-.27,33.67-.27S259.73,367.25,259.73,367.4Z" style="fill:#263238"></path><path d="M259.73,329.51c0,.15-15.08.27-33.67.27s-33.67-.12-33.67-.27,15.07-.27,33.67-.27S259.73,329.36,259.73,329.51Z" style="fill:#263238"></path><path d="M161.54,401.94H276.43a0,0,0,0,1,0,0v57.62a0,0,0,0,1,0,0H161.54a17.65,17.65,0,0,1-17.65-17.65V419.59a17.65,17.65,0,0,1,17.65-17.65Z" style="fill:#261C1A"></path><path d="M247.72,401.94H480.15a2.93,2.93,0,0,1,2.93,2.93v3.71a2.93,2.93,0,0,1-2.93,2.93H247.72a0,0,0,0,1,0,0v-9.57A0,0,0,0,1,247.72,401.94Z" style="fill:#261C1A"></path><path d="M247.72,450H480.15a2.93,2.93,0,0,1,2.93,2.93v3.71a2.93,2.93,0,0,1-2.93,2.93H247.72a0,0,0,0,1,0,0V450A0,0,0,0,1,247.72,450Z" style="fill:#261C1A"></path><path d="M476.06,450H274a19.25,19.25,0,0,1-19.24-19.25h0A19.24,19.24,0,0,1,274,411.51H476.06A47.59,47.59,0,0,0,476.06,450Z" style="fill:#f5f5f5"></path><path d="M254.74,459.56H161.31a17.41,17.41,0,0,1-17.41-17.42V420a18,18,0,0,1,18-18h95C236.07,414.58,237.63,444.85,254.74,459.56Z" style="opacity:0.30000000000000004"></path><path d="M451.51,432.54c0,.15-41.48.27-92.63.27s-92.64-.12-92.64-.27,41.47-.27,92.64-.27S451.51,432.39,451.51,432.54Z" style="fill:#263238"></path><path d="M470.58,441.09c0,.15-41.48.27-92.64.27s-92.64-.12-92.64-.27,41.47-.26,92.64-.26S470.58,441,470.58,441.09Z" style="fill:#263238"></path><path d="M465,424.6c0,.15-41.47.27-92.63.27s-92.64-.12-92.64-.27,41.47-.27,92.64-.27S465,424.45,465,424.6Z" style="fill:#263238"></path><path d="M244.59,455.52c0,.15-19.41.27-43.36.27s-43.36-.12-43.36-.27,19.41-.26,43.36-.26S244.59,455.38,244.59,455.52Z" style="fill:#263238"></path><path d="M244.59,406.73c0,.14-19.41.26-43.36.26s-43.36-.12-43.36-.26,19.41-.27,43.36-.27S244.59,406.58,244.59,406.73Z" style="fill:#263238"></path><path d="M216.18,369.16h94.66a0,0,0,0,1,0,0v33a0,0,0,0,1,0,0H216.18a13,13,0,0,1-13-13v-7a13,13,0,0,1,13-13Z" style="fill:#455a64"></path><path d="M287.52,369.16H475.68a3.07,3.07,0,0,1,3.07,3.07v1.64a3.07,3.07,0,0,1-3.07,3.07H287.52a0,0,0,0,1,0,0v-7.77A0,0,0,0,1,287.52,369.16Z" style="fill:#455a64"></path><path d="M287.52,394.38H475.68a3.07,3.07,0,0,1,3.07,3.07v1.64a3.07,3.07,0,0,1-3.07,3.07H287.52a0,0,0,0,1,0,0v-7.77A0,0,0,0,1,287.52,394.38Z" style="fill:#455a64"></path><path d="M473,394.38H302a8.73,8.73,0,0,1-8.73-8.72h0a8.73,8.73,0,0,1,8.73-8.73H473Q466.44,385.66,473,394.38Z" style="fill:#f5f5f5"></path><path d="M293.22,402.15h-77a13.09,13.09,0,0,1-13.09-13.1v-6.52a13.36,13.36,0,0,1,13.36-13.37H295C278.05,376.4,279.32,393.73,293.22,402.15Z" style="opacity:0.30000000000000004"></path><path d="M453.09,384.28c0,.15-33.7.27-75.26.27s-75.26-.12-75.26-.27,33.69-.26,75.26-.26S453.09,384.14,453.09,384.28Z" style="fill:#263238"></path><path d="M468.58,389c0,.15-33.7.27-75.26.27s-75.26-.12-75.26-.27,33.69-.27,75.26-.27S468.58,388.83,468.58,389Z" style="fill:#263238"></path><path d="M285,398.87c0,.15-15.77.27-35.23.27s-35.23-.12-35.23-.27,15.77-.27,35.23-.27S285,398.72,285,398.87Z" style="fill:#263238"></path><path d="M285,373.05c0,.15-15.77.26-35.23.26s-35.23-.11-35.23-.26,15.77-.27,35.23-.27S285,372.9,285,373.05Z" style="fill:#263238"></path><path d="M476.5,369.16c0,.15-57.87.27-129.23.27S218,369.31,218,369.16s57.85-.27,129.24-.27S476.5,369,476.5,369.16Z" style="fill:#263238"></path><polygon points="372.73 339.64 372.73 357.56 378.94 353.58 385.86 357.56 385.86 339.64 372.73 339.64" style="fill:#261C1A"></polygon></g></svg>
