<svg xmlns="http://www.w3.org/2000/svg" viewBox="0 0 500 500"><g id="freepik--Books--inject-101"><path d="M191.56,366.35H391.5a0,0,0,0,1,0,0v50.14a0,0,0,0,1,0,0H191.56a3.88,3.88,0,0,1-3.88-3.88V370.23A3.88,3.88,0,0,1,191.56,366.35Z" transform="translate(579.19 782.84) rotate(180)" style="fill:#D5CCC7"></path><path d="M191.56,366.35H391.5a0,0,0,0,1,0,0v50.14a0,0,0,0,1,0,0H191.56a3.88,3.88,0,0,1-3.88-3.88V370.23A3.88,3.88,0,0,1,191.56,366.35Z" transform="translate(579.19 782.84) rotate(180)" style="opacity:0.2"></path><rect x="236.7" y="366.35" width="30.59" height="50.14" transform="translate(504 782.84) rotate(180)" style="opacity:0.2"></rect><rect x="280.44" y="366.35" width="15.51" height="50.14" transform="translate(576.39 782.84) rotate(180)" style="opacity:0.2"></rect><path d="M121.46,366.35h66.22a0,0,0,0,1,0,0v50.14a0,0,0,0,1,0,0H121.46a3.9,3.9,0,0,1-3.9-3.9V370.25A3.9,3.9,0,0,1,121.46,366.35Z" style="fill:#D5CCC7"></path><path d="M117.56,371.74h57.93a5.09,5.09,0,0,1,5.09,5.09V406a5.09,5.09,0,0,1-5.09,5.09H117.56a0,0,0,0,1,0,0V371.74A0,0,0,0,1,117.56,371.74Z" style="fill:#fff;opacity:0.9"></path><circle cx="363.49" cy="391.42" r="14.34" style="opacity:0.2"></circle><path d="M206,330H406a0,0,0,0,1,0,0v36.39a0,0,0,0,1,0,0H206a3.88,3.88,0,0,1-3.88-3.88V333.84A3.88,3.88,0,0,1,206,330Z" transform="translate(608.11 696.31) rotate(180)" style="fill:#263238"></path><path d="M206,330H406a0,0,0,0,1,0,0v36.39a0,0,0,0,1,0,0H206a3.88,3.88,0,0,1-3.88-3.88V333.84A3.88,3.88,0,0,1,206,330Z" transform="translate(608.11 696.31) rotate(180)" style="opacity:0.2"></path><path d="M135.93,330h66.22a0,0,0,0,1,0,0v36.39a0,0,0,0,1,0,0H135.93a3.9,3.9,0,0,1-3.9-3.9V333.86A3.9,3.9,0,0,1,135.93,330Z" style="fill:#263238"></path><path d="M132,335.35H190a5.09,5.09,0,0,1,5.09,5.09v15.45A5.09,5.09,0,0,1,190,361H132a0,0,0,0,1,0,0V335.35A0,0,0,0,1,132,335.35Z" style="fill:#fff;opacity:0.9"></path><rect x="239.83" y="338.58" width="148.28" height="19.16" rx="4.19" transform="translate(627.93 696.31) rotate(180)" style="fill:#D5CCC7;opacity:0.30000000000000004"></rect><rect x="209.74" y="329.96" width="5.31" height="36.39" transform="translate(424.79 696.31) rotate(180)" style="fill:#D5CCC7;opacity:0.30000000000000004"></rect><rect x="219.44" y="329.96" width="5.31" height="36.39" transform="translate(444.18 696.31) rotate(180)" style="fill:#D5CCC7;opacity:0.30000000000000004"></rect><path d="M183.92,292.42H383.85a0,0,0,0,1,0,0V330a0,0,0,0,1,0,0H183.92a3.88,3.88,0,0,1-3.88-3.88V296.3A3.88,3.88,0,0,1,183.92,292.42Z" transform="translate(563.89 622.38) rotate(180)" style="fill:#D5CCC7"></path><path d="M183.92,292.42H383.85a0,0,0,0,1,0,0V330a0,0,0,0,1,0,0H183.92a3.88,3.88,0,0,1-3.88-3.88V296.3A3.88,3.88,0,0,1,183.92,292.42Z" transform="translate(563.89 622.38) rotate(180)" style="opacity:0.30000000000000004"></path><rect x="229.05" y="292.42" width="69.42" height="37.54" transform="translate(527.53 622.38) rotate(180)" style="fill:#fff;opacity:0.9"></rect><rect x="328.29" y="292.42" width="35.2" height="37.54" transform="translate(691.79 622.38) rotate(180)" style="fill:#fff;opacity:0.9"></rect><path d="M113.82,292.42H180a0,0,0,0,1,0,0V330a0,0,0,0,1,0,0H113.82a3.9,3.9,0,0,1-3.9-3.9V296.32A3.9,3.9,0,0,1,113.82,292.42Z" style="fill:#D5CCC7"></path><path d="M109.92,297.8h57.93a5.09,5.09,0,0,1,5.09,5.09v16.59a5.09,5.09,0,0,1-5.09,5.09H109.92a0,0,0,0,1,0,0V297.8A0,0,0,0,1,109.92,297.8Z" style="fill:#fff;opacity:0.9"></path><path d="M198.38,267.52H398.31a0,0,0,0,1,0,0v24.9a0,0,0,0,1,0,0H198.38a3.88,3.88,0,0,1-3.88-3.88V271.4A3.88,3.88,0,0,1,198.38,267.52Z" transform="translate(592.81 559.94) rotate(180)" style="fill:#D5CCC7"></path><path d="M198.38,267.52H398.31a0,0,0,0,1,0,0v24.9a0,0,0,0,1,0,0H198.38a3.88,3.88,0,0,1-3.88-3.88V271.4A3.88,3.88,0,0,1,198.38,267.52Z" transform="translate(592.81 559.94) rotate(180)" style="fill:#fff;opacity:0.30000000000000004"></path><path d="M198.38,267.52H398.31a0,0,0,0,1,0,0v24.9a0,0,0,0,1,0,0H198.38a3.88,3.88,0,0,1-3.88-3.88V271.4A3.88,3.88,0,0,1,198.38,267.52Z" transform="translate(592.81 559.94) rotate(180)" style="opacity:0.2"></path><path d="M128.28,267.52H194.5a0,0,0,0,1,0,0v24.9a0,0,0,0,1,0,0H128.28a3.9,3.9,0,0,1-3.9-3.9v-17.1A3.9,3.9,0,0,1,128.28,267.52Z" style="fill:#D5CCC7"></path><path d="M128.28,267.52H194.5a0,0,0,0,1,0,0v24.9a0,0,0,0,1,0,0H128.28a3.9,3.9,0,0,1-3.9-3.9v-17.1A3.9,3.9,0,0,1,128.28,267.52Z" style="fill:#fff;opacity:0.30000000000000004"></path><path d="M124.38,272.91H182.3a5.09,5.09,0,0,1,5.09,5.09v4A5.09,5.09,0,0,1,182.3,287H124.38a0,0,0,0,1,0,0V272.91A0,0,0,0,1,124.38,272.91Z" style="fill:#fff;opacity:0.9"></path><rect x="212.4" y="274.08" width="90.62" height="11.77" transform="translate(515.41 559.94) rotate(180)" style="fill:#263238;opacity:0.4"></rect><path d="M228.9,259.28h28.59a0,0,0,0,1,0,0v8.25a0,0,0,0,1,0,0H228.9a.64.64,0,0,1-.64-.64v-7A.64.64,0,0,1,228.9,259.28Z" style="fill:#D5CCC7"></path><path d="M228.9,259.28h28.59a0,0,0,0,1,0,0v8.25a0,0,0,0,1,0,0H228.9a.64.64,0,0,1-.64-.64v-7A.64.64,0,0,1,228.9,259.28Z" style="opacity:0.2"></path><path d="M258.14,259.28H269a0,0,0,0,1,0,0v8.25a0,0,0,0,1,0,0h-10.9a.64.64,0,0,1-.64-.64v-7A.64.64,0,0,1,258.14,259.28Z" transform="translate(526.53 526.82) rotate(180)" style="fill:#D5CCC7"></path><path d="M258.66,260.17h9.53a.84.84,0,0,1,.84.84v4.8a.84.84,0,0,1-.84.84h-9.53a0,0,0,0,1,0,0v-6.48A0,0,0,0,1,258.66,260.17Z" transform="translate(527.7 526.82) rotate(180)" style="fill:#fff;opacity:0.9"></path><path d="M226.52,253.29h28.59a0,0,0,0,1,0,0v6a0,0,0,0,1,0,0H226.52a.64.64,0,0,1-.64-.64v-4.71A.64.64,0,0,1,226.52,253.29Z" style="fill:#263238"></path><path d="M226.52,253.29h28.59a0,0,0,0,1,0,0v6a0,0,0,0,1,0,0H226.52a.64.64,0,0,1-.64-.64v-4.71A.64.64,0,0,1,226.52,253.29Z" style="opacity:0.2"></path><path d="M255.76,253.29h10.9a0,0,0,0,1,0,0v6a0,0,0,0,1,0,0h-10.9a.64.64,0,0,1-.64-.64v-4.71A.64.64,0,0,1,255.76,253.29Z" transform="translate(521.77 512.58) rotate(180)" style="fill:#263238"></path><path d="M256.28,254.18h9.53a.84.84,0,0,1,.84.84v2.54a.84.84,0,0,1-.84.84h-9.53a0,0,0,0,1,0,0v-4.22A0,0,0,0,1,256.28,254.18Z" transform="translate(522.94 512.58) rotate(180)" style="fill:#fff;opacity:0.9"></path><path d="M230.16,247.12h28.59a0,0,0,0,1,0,0v6.18a0,0,0,0,1,0,0H230.16a.64.64,0,0,1-.64-.64v-4.9A.64.64,0,0,1,230.16,247.12Z" style="fill:#D5CCC7"></path><path d="M230.16,247.12h28.59a0,0,0,0,1,0,0v6.18a0,0,0,0,1,0,0H230.16a.64.64,0,0,1-.64-.64v-4.9A.64.64,0,0,1,230.16,247.12Z" style="opacity:0.30000000000000004"></path><path d="M259.39,247.12h10.9a0,0,0,0,1,0,0v6.18a0,0,0,0,1,0,0h-10.9a.64.64,0,0,1-.64-.64v-4.89A.64.64,0,0,1,259.39,247.12Z" transform="translate(529.04 500.41) rotate(180)" style="fill:#D5CCC7"></path><path d="M259.92,248h9.53a.84.84,0,0,1,.84.84v2.73a.84.84,0,0,1-.84.84h-9.53a0,0,0,0,1,0,0V248A0,0,0,0,1,259.92,248Z" transform="translate(530.21 500.41) rotate(180)" style="fill:#fff;opacity:0.9"></path><path d="M227.78,243h28.59a0,0,0,0,1,0,0v4.1a0,0,0,0,1,0,0H227.78a.64.64,0,0,1-.64-.64v-2.82A.64.64,0,0,1,227.78,243Z" style="fill:#D5CCC7"></path><path d="M227.78,243h28.59a0,0,0,0,1,0,0v4.1a0,0,0,0,1,0,0H227.78a.64.64,0,0,1-.64-.64v-2.82A.64.64,0,0,1,227.78,243Z" style="fill:#fff;opacity:0.30000000000000004"></path><path d="M227.78,243h28.59a0,0,0,0,1,0,0v4.1a0,0,0,0,1,0,0H227.78a.64.64,0,0,1-.64-.64v-2.82A.64.64,0,0,1,227.78,243Z" style="opacity:0.2"></path><path d="M257,243h10.9a0,0,0,0,1,0,0v4.1a0,0,0,0,1,0,0H257a.64.64,0,0,1-.64-.64v-2.81A.64.64,0,0,1,257,243Z" transform="translate(524.28 490.14) rotate(180)" style="fill:#D5CCC7"></path><path d="M257,243h10.9a0,0,0,0,1,0,0v4.1a0,0,0,0,1,0,0H257a.64.64,0,0,1-.64-.64v-2.81A.64.64,0,0,1,257,243Z" transform="translate(524.28 490.14) rotate(180)" style="fill:#fff;opacity:0.30000000000000004"></path><path d="M257.54,243.91h9.53a.84.84,0,0,1,.84.84v.65a.84.84,0,0,1-.84.84h-9.53a0,0,0,0,1,0,0v-2.32A0,0,0,0,1,257.54,243.91Z" transform="translate(525.45 490.14) rotate(180)" style="fill:#fff;opacity:0.9"></path><path d="M226.52,237h28.59a0,0,0,0,1,0,0v6a0,0,0,0,1,0,0H226.52a.64.64,0,0,1-.64-.64v-4.71A.64.64,0,0,1,226.52,237Z" style="fill:#263238"></path><path d="M226.52,237h28.59a0,0,0,0,1,0,0v6a0,0,0,0,1,0,0H226.52a.64.64,0,0,1-.64-.64v-4.71A.64.64,0,0,1,226.52,237Z" style="opacity:0.2"></path><path d="M255.76,237H263a0,0,0,0,1,0,0v6a0,0,0,0,1,0,0h-7.27a.64.64,0,0,1-.64-.64v-4.71A.64.64,0,0,1,255.76,237Z" transform="translate(518.14 480.05) rotate(180)" style="fill:#263238"></path><path d="M256.28,237.92h5.9a.84.84,0,0,1,.84.84v2.54a.84.84,0,0,1-.84.84h-5.9a0,0,0,0,1,0,0v-4.22A0,0,0,0,1,256.28,237.92Z" transform="translate(519.31 480.05) rotate(180)" style="fill:#fff;opacity:0.9"></path><path d="M230.16,230.85h28.59a0,0,0,0,1,0,0V237a0,0,0,0,1,0,0H230.16a.64.64,0,0,1-.64-.64v-4.9A.64.64,0,0,1,230.16,230.85Z" style="fill:#D5CCC7"></path><path d="M230.16,230.85h28.59a0,0,0,0,1,0,0V237a0,0,0,0,1,0,0H230.16a.64.64,0,0,1-.64-.64v-4.9A.64.64,0,0,1,230.16,230.85Z" style="opacity:0.30000000000000004"></path><path d="M259.39,230.85h7.27a0,0,0,0,1,0,0V237a0,0,0,0,1,0,0h-7.27a.64.64,0,0,1-.64-.64v-4.89A.64.64,0,0,1,259.39,230.85Z" transform="translate(525.41 467.88) rotate(180)" style="fill:#D5CCC7"></path><path d="M259.92,231.74h5.9a.84.84,0,0,1,.84.84v2.73a.84.84,0,0,1-.84.84h-5.9a0,0,0,0,1,0,0v-4.41A0,0,0,0,1,259.92,231.74Z" transform="translate(526.58 467.88) rotate(180)" style="fill:#fff;opacity:0.9"></path><path d="M227.78,226.76h28.59a0,0,0,0,1,0,0v4.1a0,0,0,0,1,0,0H227.78a.64.64,0,0,1-.64-.64v-2.82A.64.64,0,0,1,227.78,226.76Z" style="fill:#D5CCC7"></path><path d="M227.78,226.76h28.59a0,0,0,0,1,0,0v4.1a0,0,0,0,1,0,0H227.78a.64.64,0,0,1-.64-.64v-2.82A.64.64,0,0,1,227.78,226.76Z" style="fill:#fff;opacity:0.30000000000000004"></path><path d="M227.78,226.76h28.59a0,0,0,0,1,0,0v4.1a0,0,0,0,1,0,0H227.78a.64.64,0,0,1-.64-.64v-2.82A.64.64,0,0,1,227.78,226.76Z" style="opacity:0.2"></path><path d="M257,226.76h7.27a0,0,0,0,1,0,0v4.1a0,0,0,0,1,0,0H257a.64.64,0,0,1-.64-.64V227.4A.64.64,0,0,1,257,226.76Z" transform="translate(520.65 457.61) rotate(180)" style="fill:#D5CCC7"></path><path d="M257,226.76h7.27a0,0,0,0,1,0,0v4.1a0,0,0,0,1,0,0H257a.64.64,0,0,1-.64-.64V227.4A.64.64,0,0,1,257,226.76Z" transform="translate(520.65 457.61) rotate(180)" style="fill:#fff;opacity:0.30000000000000004"></path><path d="M257.54,227.64h5.9a.84.84,0,0,1,.84.84v.65a.84.84,0,0,1-.84.84h-5.9a0,0,0,0,1,0,0v-2.32A0,0,0,0,1,257.54,227.64Z" transform="translate(521.82 457.61) rotate(180)" style="fill:#fff;opacity:0.9"></path></g></svg>